<svg width="175" height="250" viewBox="0 0 175 250" fill="none" xmlns="http://www.w3.org/2000/svg">
<path d="M7.26496 79.8913C9.19174 79.8913 11.0396 80.4513 12.4021 81.4483C13.7645 82.4452 14.5299 83.7973 14.5299 85.2072L88.8756 35.2563L159.829 85.2072C159.829 83.7973 160.594 82.4452 161.957 81.4483C163.319 80.4513 165.167 79.8913 167.094 79.8913C169.021 79.8913 170.869 80.4513 172.231 81.4483C173.594 82.4452 174.359 83.7973 174.359 85.2072V244.684C174.359 246.094 173.594 247.446 172.231 248.443C170.869 249.44 169.021 250 167.094 250C165.167 250 163.319 249.44 161.957 248.443C160.594 247.446 159.829 246.094 159.829 244.684V239.368H14.5299V244.684C14.5299 246.094 13.7645 247.446 12.4021 248.443C11.0396 249.44 9.19174 250 7.26496 250C5.33817 250 3.4903 249.44 2.12786 248.443C0.765414 247.446 0 246.094 0 244.684V85.2072C0 83.7973 0.765414 82.4452 2.12786 81.4483C3.4903 80.4513 5.33817 79.8913 7.26496 79.8913ZM14.5299 228.736H159.829V164.326H14.5299V228.736ZM14.5299 151.803H159.829V111.787H14.5299V151.803Z" fill="#009DFF"/>
<path d="M96.7406 9.86111C96.7406 13.8245 94.3933 17.2569 91.0237 18.812L106.282 43.1424L130.853 32.4468C129.85 30.9866 129.263 29.2041 129.263 27.3077C129.263 22.2823 133.333 18.2051 138.349 18.2051C143.366 18.2051 147.436 22.2823 147.436 27.3077C147.436 32.2382 143.536 36.2396 138.652 36.4103L117.337 83.8763C115.387 88.238 111.052 91.0256 106.282 91.0256H67.4366C62.6661 91.0256 58.35 88.219 56.3813 83.8763L35.0658 36.4103C30.1817 36.2396 26.2821 32.2382 26.2821 27.3077C26.2821 22.2823 30.3521 18.2051 35.3686 18.2051C40.3852 18.2051 44.4552 22.2823 44.4552 27.3077C44.4552 29.223 43.8683 30.9866 42.865 32.4468L67.4366 43.1424L82.7133 18.793C79.3626 17.219 77.0342 13.8056 77.0342 9.86111C77.0342 4.41854 81.445 0 86.878 0C92.311 0 96.7217 4.41854 96.7217 9.86111H96.7406Z" fill="#009DFF"/>
<path d="M69.2208 121.154H62.9408C61.7894 121.154 60.8474 122.145 60.8474 123.357C60.8474 124.569 61.7894 125.561 62.9408 125.561H69.2208C72.6748 125.561 75.5009 128.536 75.5009 132.171C75.5009 135.807 72.6748 138.782 69.2208 138.782H62.9408C61.7894 138.782 60.8474 139.774 60.8474 140.986C60.8474 142.197 61.7894 143.189 62.9408 143.189H69.2208C74.9985 143.189 79.6876 138.253 79.6876 132.171C79.6876 126.09 74.9985 121.154 69.2208 121.154ZM50.3807 132.171C50.3807 133.383 51.3227 134.375 52.474 134.375H65.0341C66.1854 134.375 67.1275 133.383 67.1275 132.171C67.1275 130.959 66.1854 129.968 65.0341 129.968H52.474C51.3227 129.968 50.3807 130.959 50.3807 132.171ZM54.5674 138.782H48.2873C44.8333 138.782 42.0073 135.807 42.0073 132.171C42.0073 128.536 44.8333 125.561 48.2873 125.561H54.5674C55.7187 125.561 56.6607 124.569 56.6607 123.357C56.6607 122.145 55.7187 121.154 54.5674 121.154H48.2873C42.5097 121.154 37.8206 126.09 37.8206 132.171C37.8206 138.253 42.5097 143.189 48.2873 143.189H54.5674C55.7187 143.189 56.6607 142.197 56.6607 140.986C56.6607 139.774 55.7187 138.782 54.5674 138.782Z" fill="#009DFF"/>
<path d="M99.349 58.3334H93.0689C91.9176 58.3334 90.9756 59.2382 90.9756 60.3441C90.9756 61.45 91.9176 62.3548 93.0689 62.3548H99.349C102.803 62.3548 105.629 65.0693 105.629 68.387C105.629 71.7046 102.803 74.4191 99.349 74.4191H93.0689C91.9176 74.4191 90.9756 75.3239 90.9756 76.4298C90.9756 77.5357 91.9176 78.4405 93.0689 78.4405H99.349C105.127 78.4405 109.816 73.9365 109.816 68.387C109.816 62.8374 105.127 58.3334 99.349 58.3334ZM80.5088 68.387C80.5088 69.4929 81.4508 70.3977 82.6022 70.3977H95.1623C96.3136 70.3977 97.2556 69.4929 97.2556 68.387C97.2556 67.2811 96.3136 66.3762 95.1623 66.3762H82.6022C81.4508 66.3762 80.5088 67.2811 80.5088 68.387ZM84.6955 74.4191H78.4155C74.9615 74.4191 72.1354 71.7046 72.1354 68.387C72.1354 65.0693 74.9615 62.3548 78.4155 62.3548H84.6955C85.8469 62.3548 86.7889 61.45 86.7889 60.3441C86.7889 59.2382 85.8469 58.3334 84.6955 58.3334H78.4155C72.6378 58.3334 67.9487 62.8374 67.9487 68.387C67.9487 73.9365 72.6378 78.4405 78.4155 78.4405H84.6955C85.8469 78.4405 86.7889 77.5357 86.7889 76.4298C86.7889 75.3239 85.8469 74.4191 84.6955 74.4191Z" fill="white"/>
<path d="M141.016 121.154H134.736C133.584 121.154 132.642 122.145 132.642 123.357C132.642 124.569 133.584 125.561 134.736 125.561H141.016C144.47 125.561 147.296 128.536 147.296 132.171C147.296 135.807 144.47 138.782 141.016 138.782H134.736C133.584 138.782 132.642 139.774 132.642 140.986C132.642 142.197 133.584 143.189 134.736 143.189H141.016C146.793 143.189 151.482 138.253 151.482 132.171C151.482 126.09 146.793 121.154 141.016 121.154ZM122.175 132.171C122.175 133.383 123.117 134.375 124.269 134.375H136.829C137.98 134.375 138.922 133.383 138.922 132.171C138.922 130.959 137.98 129.968 136.829 129.968H124.269C123.117 129.968 122.175 130.959 122.175 132.171ZM126.362 138.782H120.082C116.628 138.782 113.802 135.807 113.802 132.171C113.802 128.536 116.628 125.561 120.082 125.561H126.362C127.513 125.561 128.456 124.569 128.456 123.357C128.456 122.145 127.513 121.154 126.362 121.154H120.082C114.304 121.154 109.615 126.09 109.615 132.171C109.615 138.253 114.304 143.189 120.082 143.189H126.362C127.513 143.189 128.456 142.197 128.456 140.986C128.456 139.774 127.513 138.782 126.362 138.782Z" fill="#009DFF"/>
<path d="M51.1644 172.428C50.6183 171.176 49.4319 170.299 48.0751 170.145C45.6234 169.856 36.1439 171.278 36.1439 171.278C36.1439 171.278 26.6673 172.72 24.4084 173.716C23.1568 174.262 22.28 175.449 22.1253 176.806C21.8559 179.254 22.5949 184.179 22.5949 184.179C22.5949 184.179 23.3339 189.104 24.3326 191.382C24.8787 192.634 26.0652 193.51 27.4219 193.665C29.8736 193.954 39.3531 192.532 39.3531 192.532C39.3531 192.532 48.8327 191.109 51.0916 190.113C52.3432 189.567 53.22 188.381 53.3747 187.024C53.6636 184.572 52.9216 179.628 52.9216 179.628C52.9216 179.628 52.1631 174.706 51.1644 172.428Z" fill="#009DFF"/>
<path d="M35.4051 186.914L42.5855 181.179L34.0381 177.804L35.4051 186.914Z" fill="white"/>
<path d="M97.5555 169.407C96.8085 168.264 95.4926 167.597 94.129 167.671C91.6635 167.794 82.5535 170.777 82.5535 170.777C82.5535 170.777 73.4497 173.777 71.3883 175.136C70.2452 175.883 69.5783 177.199 69.6519 178.562C69.7942 181.022 71.3435 185.754 71.3435 185.754C71.3435 185.754 72.8928 190.487 74.2572 192.567C75.0042 193.71 76.3202 194.377 77.6838 194.304C80.1493 194.18 89.2593 191.198 89.2593 191.198C89.2593 191.198 98.3693 188.215 100.431 186.857C101.574 186.11 102.241 184.794 102.167 183.431C102.043 180.965 100.488 176.214 100.488 176.214C100.488 176.214 98.9199 171.487 97.5555 169.407Z" fill="#009DFF"/>
<path d="M84.4305 186.317L90.5549 179.465L81.5646 177.562L84.4305 186.317Z" fill="white"/>
<path d="M149.997 174.366C149.643 173.047 148.6 172.004 147.281 171.65C144.899 171 135.313 171 135.313 171C135.313 171 125.728 171.02 123.346 171.669C122.027 172.024 120.984 173.067 120.63 174.385C120 176.767 120 181.747 120 181.747C120 181.747 120 186.727 120.65 189.128C121.004 190.447 122.047 191.49 123.366 191.844C125.747 192.494 135.333 192.494 135.333 192.494C135.333 192.494 144.919 192.494 147.3 191.844C148.619 191.49 149.662 190.447 150.017 189.128C150.666 186.746 150.666 181.747 150.666 181.747C150.666 181.747 150.647 176.767 149.997 174.366Z" fill="#009DFF"/>
<path d="M132.263 186.353L140.215 181.747L132.263 177.141V186.353Z" fill="white"/>
<path d="M124.997 204.366C124.643 203.047 123.6 202.004 122.281 201.65C119.899 201 110.313 201 110.313 201C110.313 201 100.728 201.02 98.3461 201.669C97.0274 202.024 95.9842 203.067 95.6299 204.385C95 206.767 95 211.747 95 211.747C95 211.747 95 216.727 95.6495 219.128C96.0038 220.447 97.047 221.49 98.3658 221.844C100.747 222.494 110.333 222.494 110.333 222.494C110.333 222.494 119.919 222.494 122.3 221.844C123.619 221.49 124.662 220.447 125.017 219.128C125.666 216.746 125.666 211.747 125.666 211.747C125.666 211.747 125.647 206.767 124.997 204.366Z" fill="#009DFF"/>
<path d="M107.263 216.353L115.215 211.747L107.263 207.141V216.353Z" fill="white"/>
<path d="M73.9971 206.366C73.6428 205.047 72.5996 204.004 71.2808 203.65C68.8991 203 59.3135 203 59.3135 203C59.3135 203 49.7278 203.02 47.3461 203.669C46.0274 204.024 44.9842 205.067 44.6299 206.385C44 208.767 44 213.747 44 213.747C44 213.747 44 218.727 44.6495 221.128C45.0038 222.447 46.047 223.49 47.3658 223.844C49.7475 224.494 59.3332 224.494 59.3332 224.494C59.3332 224.494 68.9188 224.494 71.3005 223.844C72.6193 223.49 73.6625 222.447 74.0168 221.128C74.6663 218.746 74.6663 213.747 74.6663 213.747C74.6663 213.747 74.6466 208.767 73.9971 206.366Z" fill="#009DFF"/>
<path d="M56.2626 218.353L64.2146 213.747L56.2626 209.141V218.353Z" fill="white"/>
</svg>
